name analog
datacolumns 19
datarows 61
range 0.3675 0.3975
endheader
time	ground_force_vx	ground_force_vy	ground_force_vz	ground_force_px	ground_force_py	ground_force_pz	l_ground_force_vx	l_ground_force_vy	l_ground_force_vz	l_ground_force_px	l_ground_force_py	l_ground_force_pz	ground_torque_x	ground_torque_y	ground_torque_z	l_ground_torque_x	l_ground_torque_y	l_ground_torque_z
0.3675	-0.0	-0.0	-0.0	1.0825815200805664	8.74923324584961	-720.7352905273438	-0.0	-0.0	-0.0	-34.837928771972656	16.09048080444336	76.356201171875	-0.0	-0.0	-0.0	-0.0	-0.0	-0.0
0.368	-0.0	-0.0	-0.0	0.2654840052127838	9.61396312713623	-708.76708984375	-0.0	-0.0	-0.0	-34.964447021484375	15.912189483642578	75.6059341430664	-0.0	-0.0	-0.0	-0.0	-0.0	-0.0
0.3685	-0.0	-0.0	-0.0	-0.5878552794456482	9.729290962219238	-699.1364135742188	-0.0	-0.0	-0.0	-34.76083755493164	16.155805587768555	75.25482940673828	-0.0	-0.0	-0.0	-0.0	-0.0	-0.0
0.369	-0.0	-0.0	-0.0	-1.3030166625976562	10.365304946899414	-688.63916015625	-0.0	-0.0	-0.0	-34.965755462646484	16.00201988220215	76.4585189819336	-0.0	-0.0	-0.0	-0.0	-0.0	-0.0
0.3695	-0.0	-0.0	-0.0	-2.4609129428863525	10.262311935424805	-678.0020751953125	-0.0	-0.0	-0.0	-34.9013671875	16.181900024414062	75.35315704345703	-0.0	-0.0	-0.0	-0.0	-0.0	-0.0
0.37	-0.0	-0.0	-0.0	-3.6836326122283936	10.313148498535156	-663.919677734375	-0.0	-0.0	-0.0	-35.14404296875	15.963254928588867	76.35688018798828	-0.0	-0.0	-0.0	-0.0	-0.0	-0.0
0.3705	-0.0	-0.0	-0.0	-4.129571914672852	9.843607902526855	-651.8145141601562	-0.0	-0.0	-0.0	-34.697174072265625	16.027381896972656	76.7079849243164	-0.0	-0.0	-0.0	-0.0	-0.0	-0.0
0.371	-0.0	-0.0	-0.0	-4.486334323883057	9.931779861450195	-636.5294799804688	-0.0	-0.0	-0.0	-34.773765563964844	16.18164825439453	75.50479888916016	-0.0	-0.0	-0.0	-0.0	-0.0	-0.0
0.3715	-0.0	-0.0	-0.0	-3.912172794342041	9.575221061706545	-622.7540893554688	-0.0	-0.0	-0.0	-34.95235824584961	16.05312156677246	75.85604095458984	-0.0	-0.0	-0.0	-0.0	-0.0	-0.0
0.372	-0.0	-0.0	-0.0	-2.905462741851806	9.14220142364502	-607.6702880859375	-0.0	-0.0	-0.0	-35.067718505859375	15.950122833251951	74.95172882080078	-0.0	-0.0	-0.0	-0.0	-0.0	-0.0
0.3725	-0.0	-0.0	-0.0	-1.809656381607056	8.798412322998047	-591.2733154296875	-0.0	-0.0	-0.0	-34.735801696777344	16.104564666748047	74.0509033203125	-0.0	-0.0	-0.0	-0.0	-0.0	-0.0
0.373	-0.0	-0.0	-0.0	-0.9303111433982848	8.212783813476562	-575.3807983398438	-0.0	-0.0	-0.0	-34.8123779296875	16.053024291992188	76.00670623779297	-0.0	-0.0	-0.0	-0.0	-0.0	-0.0
0.3735	-0.0	-0.0	-0.0	-1.32573664188385	7.588946342468262	-560.7495727539062	-0.0	-0.0	-0.0	-34.90191650390625	16.129772186279297	76.90995025634766	-0.0	-0.0	-0.0	-0.0	-0.0	-0.0
0.374	-0.0	-0.0	-0.0	-1.325251221656799	6.926948547363281	-546.0717163085938	-0.0	-0.0	-0.0	-34.88880157470703	16.117782592773438	75.35657501220703	-0.0	-0.0	-0.0	-0.0	-0.0	-0.0
0.3745	-0.0	-0.0	-0.0	-1.7088123559951782	6.098947525024414	-532.2487182617188	-0.0	-0.0	-0.0	-34.991477966308594	16.027889251708984	76.26033020019531	-0.0	-0.0	-0.0	-0.0	-0.0	-0.0
0.375	-0.0	-0.0	-0.0	-1.6188462972640991	5.398911952972412	-518.7739868164062	-0.0	-0.0	-0.0	-34.75946044921875	16.33617401123047	76.26092529296875	-0.0	-0.0	-0.0	-0.0	-0.0	-0.0
0.3755	-0.0	-0.0	-0.0	-1.2358500957489014	4.316281795501709	-505.5560302734375	-0.0	-0.0	-0.0	-34.77267837524414	16.14284324645996	76.20893096923828	-0.0	-0.0	-0.0	-0.0	-0.0	-0.0
0.376	-0.0	-0.0	-0.0	-0.6624926328659058	4.507665634155273	-494.3594665527344	-0.0	-0.0	-0.0	-35.09233474731445	16.0280818939209	75.26158142089844	-0.0	-0.0	-0.0	-0.0	-0.0	-0.0
0.3765	-0.0	-0.0	-0.0	-0.280879259109497	4.405336856842041	-484.6677551269531	-0.0	-0.0	-0.0	-34.87532043457031	16.169893264770508	75.14697265625	-0.0	-0.0	-0.0	-0.0	-0.0	-0.0
0.377	-0.0	-0.0	-0.0	0.2563160955905914	4.153214454650879	-475.4329223632813	-0.0	-0.0	-0.0	-34.734283447265625	16.4917049407959	75.9120101928711	-0.0	-0.0	-0.0	-0.0	-0.0	-0.0
0.3775	-0.0	-0.0	-0.0	1.6570852994918823	3.8571181297302246	-466.65667724609375	-0.0	-0.0	-0.0	-35.067718505859375	16.232669830322266	75.75223541259766	-0.0	-0.0	-0.0	-0.0	-0.0	-0.0
0.378	-0.0	-0.0	-0.0	1.8355438709259035	4.1512861251831055	-460.0001220703125	-0.0	-0.0	-0.0	-34.69619369506836	16.052692413330078	75.8468246459961	-0.0	-0.0	-0.0	-0.0	-0.0	-0.0
0.3785	-0.0	-0.0	-0.0	3.054706573486328	3.856892347335816	-454.1467590332031	-0.0	-0.0	-0.0	-34.906044006347656	16.27414321899414	76.45354461669922	-0.0	-0.0	-0.0	-0.0	-0.0	-0.0
0.379	-0.0	-0.0	-0.0	3.1873435974121094	3.59527587890625	-450.07037353515625	-0.0	-0.0	-0.0	-34.99208068847656	15.948763847351074	75.19791412353516	-0.0	-0.0	-0.0	-0.0	-0.0	-0.0
0.3795	-0.0	-0.0	-0.0	3.8360519409179688	2.9003729820251465	-450.2503356933594	-0.0	-0.0	-0.0	-34.90659713745117	15.97659683227539	75.60293579101562	-0.0	-0.0	-0.0	-0.0	-0.0	-0.0
0.38	-0.0	-0.0	-0.0	4.357583999633789	1.885457158088684	-451.0651245117188	-0.0	-0.0	-0.0	-34.902774810791016	15.96258544921875	75.6575927734375	-0.0	-0.0	-0.0	-0.0	-0.0	-0.0
0.3805	-0.0	-0.0	-0.0	5.366430282592773	0.6000288724899292	-450.11517333984375	-0.0	-0.0	-0.0	-34.879173278808594	16.208654403686523	75.64043426513672	-0.0	-0.0	-0.0	-0.0	-0.0	-0.0
0.381	-0.0	-0.0	-0.0	6.367655754089356	-0.164398044347763	-453.1847839355469	-0.0	-0.0	-0.0	-34.860572814941406	16.042985916137695	75.65787506103516	-0.0	-0.0	-0.0	-0.0	-0.0	-0.0
0.3815	-0.0	-0.0	-0.0	7.081038475036621	-1.3606141805648804	-457.3680419921875	-0.0	-0.0	-0.0	-35.02083206176758	15.664023399353027	75.30706787109375	-0.0	-0.0	-0.0	-0.0	-0.0	-0.0
0.382	-0.0	-0.0	-0.0	7.442074775695801	-3.2934141159057617	-463.7252807617188	-0.0	-0.0	-0.0	-34.77085494995117	16.261009216308594	75.78553771972656	-0.0	-0.0	-0.0	-0.0	-0.0	-0.0
0.3825	-0.0	-0.0	-0.0	6.972500801086426	-6.1593918800354	-472.8894348144531	-0.0	-0.0	-0.0	-35.00151062011719	16.151325225830078	75.39852905273438	-0.0	-0.0	-0.0	-0.0	-0.0	-0.0
0.383	-0.0	-0.0	-0.0	6.775056838989258	-8.983089447021484	-482.945556640625	-0.0	-0.0	-0.0	-35.162837982177734	16.151098251342773	75.4204330444336	-0.0	-0.0	-0.0	-0.0	-0.0	-0.0
0.3835	-0.0	-0.0	-0.0	8.075626373291016	-11.248741149902344	-497.3499145507813	-0.0	-0.0	-0.0	-34.963844299316406	16.33673858642578	75.4547119140625	-0.0	-0.0	-0.0	-0.0	-0.0	-0.0
0.384	-0.0	-0.0	-0.0	10.46983242034912	-15.366297721862791	-518.129638671875	-0.0	-0.0	-0.0	-34.87431335449219	15.947747230529783	75.74880981445312	-0.0	-0.0	-0.0	-0.0	-0.0	-0.0
0.3845	-0.0	-0.0	-0.0	12.005977630615234	-22.48719787597656	-544.9822998046875	-0.0	-0.0	-0.0	-35.15092086791992	15.909974098205566	75.3975601196289	-0.0	-0.0	-0.0	-0.0	-0.0	-0.0
0.385	-0.0	-0.0	-0.0	14.30247402191162	-28.88968849182129	-575.1133422851562	-0.0	-0.0	-0.0	-34.75379943847656	16.261600494384766	75.57598114013672	-0.0	-0.0	-0.0	-0.0	-0.0	-0.0
0.3855	-0.0	-0.0	-0.0	16.693252563476562	-32.906005859375	-608.4241333007812	-0.0	-0.0	-0.0	-34.83672332763672	15.90983772277832	75.54366302490234	-0.0	-0.0	-0.0	-0.0	-0.0	-0.0
0.386	-0.0	-0.0	-0.0	19.107572555541992	-36.06876754760742	-640.569091796875	-0.0	-0.0	-0.0	-34.74722671508789	16.074838638305664	76.3031005859375	-0.0	-0.0	-0.0	-0.0	-0.0	-0.0
0.3865	-0.0	-0.0	-0.0	19.165647506713867	-37.828556060791016	-675.343994140625	-0.0	-0.0	-0.0	-34.88121032714844	16.01459503173828	75.16203308105469	-0.0	-0.0	-0.0	-0.0	-0.0	-0.0
0.387	-0.0	-0.0	-0.0	17.402761459350586	-38.99517440795898	-708.0460205078125	-0.0	-0.0	-0.0	-34.95588684082031	15.872146606445312	76.0103759765625	-0.0	-0.0	-0.0	-0.0	-0.0	-0.0
0.3875	-0.0	-0.0	-0.0	14.339607238769531	-39.63279342651367	-740.120849609375	-0.0	-0.0	-0.0	-34.903785705566406	16.02191734313965	75.71833801269531	-0.0	-0.0	-0.0	-0.0	-0.0	-0.0
0.388	-0.0	-0.0	-0.0	10.652915954589844	-38.17741012573242	-767.5798950195312	-0.0	-0.0	-0.0	-35.11997604370117	16.12683868408203	75.63189697265625	-0.0	-0.0	-0.0	-0.0	-0.0	-0.0
0.3885	-0.0	-0.0	-0.0	6.6610107421875	-35.80067443847656	-793.3307495117188	-0.0	-0.0	-0.0	-34.99222183227539	16.337081909179688	75.68718719482422	-0.0	-0.0	-0.0	-0.0	-0.0	-0.0
0.389	-0.0	-0.0	-0.0	3.152626037597656	-32.2208366394043	-814.7846069335938	-0.0	-0.0	-0.0	-34.55293655395508	16.082473754882812	75.24946594238281	-0.0	-0.0	-0.0	-0.0	-0.0	-0.0
0.3895	-0.0	-0.0	-0.0	-0.1855040341615677	-27.43009185791016	-831.0884399414062	-0.0	-0.0	-0.0	-34.799346923828125	16.201171875	76.8585205078125	-0.0	-0.0	-0.0	-0.0	-0.0	-0.0
0.39	-0.0	-0.0	-0.0	-1.664917230606079	-22.05329704284668	-843.8023071289062	-0.0	-0.0	-0.0	-35.039398193359375	16.24064826965332	75.4547119140625	-0.0	-0.0	-0.0	-0.0	-0.0	-0.0
0.3905	-0.0	-0.0	-0.0	-3.56842041015625	-17.18855094909668	-854.2495727539062	-0.0	-0.0	-0.0	-34.78398513793945	16.231796264648438	75.92617797851562	-0.0	-0.0	-0.0	-0.0	-0.0	-0.0
0.391	-0.0	-0.0	-0.0	-5.441841125488281	-12.7997407913208	-862.3189086914062	-0.0	-0.0	-0.0	-34.62657165527344	16.07668685913086	74.57115173339844	-0.0	-0.0	-0.0	-0.0	-0.0	-0.0
0.3915	-0.0	-0.0	-0.0	-7.330504894256592	-8.802188873291016	-864.7308959960938	-0.0	-0.0	-0.0	-34.72537612915039	15.750734329223633	76.507568359375	-0.0	-0.0	-0.0	-0.0	-0.0	-0.0
0.392	-0.0	-0.0	-0.0	-8.87509536743164	-5.156956195831299	-868.761962890625	-0.0	-0.0	-0.0	-34.814903259277344	16.427284240722656	74.81385803222656	-0.0	-0.0	-0.0	-0.0	-0.0	-0.0
0.3925	-0.0	-0.0	-0.0	-9.603947639465332	-1.5982317924499512	-870.3814697265625	-0.0	-0.0	-0.0	-34.751163482666016	16.1630802154541	76.24007415771484	-0.0	-0.0	-0.0	-0.0	-0.0	-0.0
0.393	-0.0	-0.0	-0.0	-10.600589752197266	1.887185215950012	-872.5616455078125	-0.0	-0.0	-0.0	-34.73106002807617	15.94041919708252	76.09500885009766	-0.0	-0.0	-0.0	-0.0	-0.0	-0.0
0.3935	-0.0	-0.0	-0.0	-11.104741096496582	4.158108711242676	-874.4735107421875	-0.0	-0.0	-0.0	-34.93611145019531	16.247447967529297	74.7528076171875	-0.0	-0.0	-0.0	-0.0	-0.0	-0.0
0.394	-0.0	-0.0	-0.0	-11.062103271484377	5.426970481872559	-873.6214599609375	-0.0	-0.0	-0.0	-34.662357330322266	15.972427368164062	75.88790893554688	-0.0	-0.0	-0.0	-0.0	-0.0	-0.0
0.3945	-0.0	-0.0	-0.0	-11.004241943359377	5.452615261077881	-874.1417846679688	-0.0	-0.0	-0.0	-35.104488372802734	16.178524017333984	76.07482147216797	-0.0	-0.0	-0.0	-0.0	-0.0	-0.0
0.395	-0.0	-0.0	-0.0	-9.96524715423584	4.776329517364502	-872.3544921875	-0.0	-0.0	-0.0	-35.03097152709961	15.95673656463623	76.20034790039062	-0.0	-0.0	-0.0	-0.0	-0.0	-0.0
0.3955	-0.0	-0.0	-0.0	-8.12883472442627	4.723911285400391	-870.0900268554688	-0.0	-0.0	-0.0	-35.12046813964844	16.178401947021484	75.58056640625	-0.0	-0.0	-0.0	-0.0	-0.0	-0.0
0.396	-0.0	-0.0	-0.0	-5.757084846496582	4.09507417678833	-866.4327392578125	-0.0	-0.0	-0.0	-34.85213088989258	16.067684173583984	74.95989227294922	-0.0	-0.0	-0.0	-0.0	-0.0	-0.0
0.3965	-0.0	-0.0	-0.0	-3.4584715366363525	3.2086944580078125	-862.7174072265625	-0.0	-0.0	-0.0	-35.16151809692383	16.145788192749023	75.39132690429688	-0.0	-0.0	-0.0	-0.0	-0.0	-0.0
0.397	-0.0	-0.0	-0.0	-1.951283574104309	1.5997124910354614	-862.0305786132812	-0.0	-0.0	-0.0	-34.67742156982422	15.998270988464355	74.4818115234375	-0.0	-0.0	-0.0	-0.0	-0.0	-0.0
0.3975	-0.0	-0.0	-0.0	-2.502344846725464	0.3039326965808868	-858.788818359375	-0.0	-0.0	-0.0	-34.88880157470703	16.01459503173828	77.3374252319336	-0.0	-0.0	-0.0	-0.0	-0.0	-0.0
